<svg xmlns="http://www.w3.org/2000/svg" xmlns:xlink="http://www.w3.org/1999/xlink" width="500"
    zoomAndPan="magnify" viewBox="0 0 375 374.999991" height="500"
    preserveAspectRatio="xMidYMid meet" version="1.0">
    <defs>
        <g />
        <clipPath id="2f9983a5d4">
            <path
                d="M 48.84375 56.472656 L 325.941406 56.472656 L 325.941406 319 L 48.84375 319 Z M 48.84375 56.472656 "
                clip-rule="nonzero" />
        </clipPath>
    </defs>
    <g clip-path="url(#2f9983a5d4)">
        <path fill="#470d0d"
            d="M 165.660156 317.097656 C 166.210938 316.210938 162.460938 315.695312 155.394531 315.695312 C 148.242188 315.695312 142.824219 314.949219 140.246094 313.601562 C 138.039062 312.453125 135.128906 311.507812 133.777344 311.5 C 132.429688 311.496094 131.328125 310.863281 131.328125 310.089844 C 131.328125 309.320312 130.046875 308.691406 128.480469 308.691406 C 126.914062 308.691406 125.269531 307.742188 124.824219 306.585938 C 124.382812 305.429688 123.28125 304.484375 122.375 304.484375 C 121.472656 304.484375 119.804688 303.148438 118.671875 301.511719 C 117.539062 299.875 115.824219 297.710938 114.859375 296.707031 C 113.894531 295.699219 113.109375 294.164062 113.109375 293.292969 C 113.109375 292.417969 112.554688 292.046875 111.882812 292.464844 C 111.207031 292.882812 110.253906 290.710938 109.761719 287.640625 C 109.273438 284.574219 108.246094 282.0625 107.484375 282.0625 C 105.769531 282.0625 105.613281 261.507812 107.320312 260.453125 C 107.992188 260.039062 108.9375 257.707031 109.425781 255.277344 C 109.910156 252.84375 111.480469 249.835938 112.910156 248.589844 C 114.339844 247.34375 115.960938 244.898438 116.511719 243.152344 C 117.0625 241.40625 118.03125 240.300781 118.664062 240.691406 C 119.296875 241.082031 120.222656 239.777344 120.722656 237.789062 C 121.515625 234.632812 123.707031 232.105469 130.976562 225.972656 C 131.941406 225.160156 132.726562 223.257812 132.726562 221.746094 C 132.726562 220.234375 133.296875 219 133.992188 219 C 134.6875 219 135.695312 215.214844 136.230469 210.589844 C 136.769531 205.964844 137.777344 202.179688 138.472656 202.179688 C 139.167969 202.179688 139.734375 201.277344 139.734375 200.175781 C 139.734375 199.074219 141.136719 197.96875 142.851562 197.722656 C 144.566406 197.476562 146.765625 195.699219 147.738281 193.773438 C 148.710938 191.84375 149.511719 190.867188 149.523438 191.601562 C 149.535156 192.332031 150.300781 192.175781 151.226562 191.25 C 152.152344 190.324219 154.042969 189.566406 155.429688 189.566406 C 156.820312 189.566406 157.953125 188.757812 157.953125 187.765625 C 157.953125 186.773438 159.265625 185.859375 160.871094 185.742188 C 162.472656 185.621094 165.398438 183.910156 167.367188 181.9375 C 169.542969 179.765625 172.527344 178.355469 174.960938 178.355469 C 177.171875 178.355469 178.976562 177.726562 178.976562 176.953125 C 178.976562 176.183594 181.183594 175.554688 183.878906 175.554688 C 186.578125 175.554688 188.785156 176.183594 188.785156 176.953125 C 188.785156 177.726562 191.625 178.355469 195.09375 178.355469 C 198.964844 178.355469 201.398438 178.988281 201.398438 179.992188 C 201.398438 180.890625 201.792969 181.234375 202.273438 180.75 C 203.566406 179.457031 214.976562 185.882812 218.894531 190.109375 C 220.761719 192.125 222.984375 193.773438 223.839844 193.773438 C 224.691406 193.773438 225.03125 194.351562 224.59375 195.058594 C 224.15625 195.765625 225.695312 196.761719 228.015625 197.273438 C 230.332031 197.78125 232.230469 198.824219 232.230469 199.589844 C 232.230469 201.332031 234.632812 203.75 239.589844 206.988281 C 241.707031 208.375 243.441406 210.113281 243.441406 210.851562 C 243.441406 212.660156 247.085938 216.195312 248.949219 216.195312 C 249.773438 216.195312 250.449219 217.457031 250.449219 218.996094 C 250.449219 220.539062 251.066406 221.800781 251.824219 221.800781 C 252.582031 221.800781 253.59375 223.378906 254.078125 225.304688 C 254.5625 227.230469 255.476562 228.808594 256.113281 228.808594 C 256.746094 228.808594 257.707031 230.199219 258.246094 231.894531 C 258.785156 233.59375 260.089844 235.847656 261.144531 236.902344 C 262.199219 237.957031 263.0625 239.71875 263.0625 240.820312 C 263.0625 241.921875 263.691406 242.824219 264.464844 242.824219 C 265.234375 242.824219 265.867188 244.398438 265.867188 246.324219 C 265.867188 248.253906 266.46875 249.828125 267.203125 249.828125 C 267.9375 249.828125 268.957031 252.035156 269.460938 254.734375 C 269.96875 257.433594 270.871094 259.640625 271.472656 259.640625 C 272.070312 259.640625 272.976562 261.847656 273.480469 264.542969 C 273.988281 267.242188 275.003906 269.449219 275.738281 269.449219 C 276.476562 269.449219 277.078125 273.234375 277.078125 277.859375 C 277.078125 282.53125 276.453125 286.265625 275.675781 286.265625 C 274.90625 286.265625 274.273438 287.546875 274.273438 289.113281 C 274.273438 290.679688 273.273438 292.34375 272.054688 292.8125 C 270.355469 293.464844 270.25 293.921875 271.605469 294.757812 C 272.746094 295.464844 271.53125 296.203125 268.222656 296.824219 C 265.382812 297.355469 263.0625 298.351562 263.0625 299.035156 C 263.0625 299.722656 262.097656 300.28125 260.917969 300.28125 C 259.734375 300.28125 258.40625 301.226562 257.964844 302.382812 C 257.519531 303.539062 256.332031 304.484375 255.320312 304.484375 C 254.3125 304.484375 253.265625 305.148438 252.996094 305.953125 C 252.726562 306.761719 248.890625 307.796875 244.472656 308.253906 C 240.050781 308.710938 236.433594 309.566406 236.433594 310.160156 C 236.433594 310.753906 228.234375 311.691406 218.214844 312.246094 C 208.195312 312.800781 199.996094 313.804688 199.996094 314.476562 C 199.996094 315.148438 196.527344 315.699219 192.289062 315.699219 C 188.050781 315.699219 184.582031 316.328125 184.582031 317.097656 C 184.582031 317.902344 180.347656 318.5 174.6875 318.5 C 168.449219 318.5 165.117188 317.984375 165.660156 317.097656 Z M 183.441406 177.394531 C 182.429688 176.992188 181.222656 177.042969 180.757812 177.507812 C 180.292969 177.972656 181.117188 178.304688 182.597656 178.242188 C 184.230469 178.175781 184.5625 177.84375 183.441406 177.394531 Z M 80.199219 230.902344 C 77.898438 229.65625 74.878906 227.410156 73.488281 225.914062 C 72.09375 224.421875 70.417969 223.199219 69.761719 223.199219 C 69.105469 223.199219 68.171875 221.621094 67.6875 219.695312 C 67.203125 217.769531 66.1875 216.191406 65.433594 216.191406 C 64.675781 216.191406 64.058594 214.597656 64.058594 212.644531 C 64.058594 210.695312 63.113281 208.734375 61.957031 208.289062 C 60.800781 207.847656 59.851562 206.328125 59.851562 204.914062 C 59.851562 203.5 59.28125 201.988281 58.582031 201.558594 C 57.886719 201.125 56.863281 197.464844 56.3125 193.417969 C 55.761719 189.371094 54.597656 185.613281 53.726562 185.0625 C 52.699219 184.414062 52.144531 178.292969 52.144531 167.554688 L 52.144531 151.042969 L 57.050781 149.359375 C 59.75 148.4375 61.324219 147.609375 60.554688 147.523438 C 59.785156 147.433594 61.359375 146.578125 64.058594 145.613281 C 69.066406 143.828125 76.671875 145.0625 76.671875 147.660156 C 76.671875 148.355469 77.933594 148.921875 79.472656 148.921875 C 81.015625 148.921875 82.277344 149.554688 82.277344 150.324219 C 82.277344 151.097656 82.957031 151.726562 83.789062 151.726562 C 84.621094 151.726562 88.136719 154.5625 91.605469 158.03125 C 95.074219 161.5 98.484375 164.339844 99.175781 164.339844 C 99.871094 164.339844 100.835938 165.917969 101.320312 167.84375 C 101.804688 169.769531 102.683594 171.347656 103.269531 171.347656 C 103.859375 171.347656 104.746094 173.871094 105.238281 176.953125 C 105.730469 180.035156 106.746094 182.558594 107.492188 182.558594 C 108.238281 182.558594 109.246094 184.132812 109.730469 186.0625 C 110.214844 187.988281 111.171875 189.566406 111.859375 189.566406 C 112.546875 189.566406 113.109375 190.828125 113.109375 192.367188 C 113.109375 193.910156 113.738281 195.171875 114.507812 195.171875 C 115.324219 195.171875 115.910156 199.816406 115.910156 206.300781 C 115.910156 212.421875 115.28125 217.820312 114.507812 218.292969 C 113.738281 218.769531 113.109375 220.421875 113.109375 221.964844 C 113.109375 223.503906 112.476562 224.375 111.707031 223.898438 C 110.9375 223.425781 110.304688 224.039062 110.304688 225.261719 C 110.304688 226.488281 109.203125 227.898438 107.851562 228.398438 C 106.503906 228.894531 105 229.898438 104.507812 230.628906 C 104.015625 231.363281 99.289062 232.234375 93.996094 232.566406 C 86.871094 233.015625 83.296875 232.585938 80.199219 230.902344 Z M 277.628906 226.828125 C 277.210938 225.742188 275.382812 224.480469 273.5625 224.023438 C 271.742188 223.566406 269.8125 221.777344 269.269531 220.042969 C 268.730469 218.308594 267.898438 216.578125 267.425781 216.191406 C 264.632812 213.921875 263.058594 208.097656 263.058594 200.011719 C 263.058594 193.671875 262.578125 191.097656 261.519531 191.753906 C 260.398438 192.445312 260.398438 191.921875 261.519531 189.828125 C 262.367188 188.242188 263.058594 184.691406 263.058594 181.9375 C 263.058594 178.660156 264.03125 176.09375 265.863281 174.523438 C 267.40625 173.207031 268.675781 170.53125 268.6875 168.582031 C 268.707031 165.484375 271.390625 159.039062 271.445312 161.960938 C 271.5 164.796875 278.476562 155.132812 278.476562 152.222656 C 278.476562 150.136719 279.296875 148.921875 280.710938 148.921875 C 281.941406 148.921875 284.730469 147.65625 286.90625 146.105469 C 293.398438 141.480469 316.316406 142.558594 316.316406 147.488281 C 316.316406 148.277344 317.160156 148.921875 318.191406 148.921875 C 320.152344 148.921875 323.320312 154.589844 323.320312 158.097656 C 323.320312 159.21875 323.953125 160.136719 324.722656 160.136719 C 325.570312 160.136719 326.125 165.976562 326.125 174.851562 C 326.125 182.945312 325.574219 189.566406 324.902344 189.566406 C 324.230469 189.566406 323.269531 192.128906 322.769531 195.265625 C 322.246094 198.527344 320.371094 202.453125 318.386719 204.4375 C 316.476562 206.347656 314.914062 208.828125 314.914062 209.949219 C 314.914062 211.070312 314.28125 211.988281 313.511719 211.988281 C 312.742188 211.988281 312.109375 212.953125 312.109375 214.132812 C 312.109375 215.316406 311.226562 216.621094 310.144531 217.035156 C 309.066406 217.449219 307.863281 219.003906 307.476562 220.488281 C 307.085938 221.976562 305.289062 223.785156 303.484375 224.507812 C 301.542969 225.285156 301.058594 225.902344 302.300781 226.011719 C 308.195312 226.539062 297.601562 228.621094 288.59375 228.707031 C 281.035156 228.78125 278.191406 228.292969 277.628906 226.828125 Z M 48.863281 162.9375 C 48.863281 161.007812 49.183594 160.222656 49.570312 161.183594 C 49.960938 162.148438 49.960938 163.722656 49.570312 164.6875 C 49.183594 165.652344 48.863281 164.863281 48.863281 162.9375 Z M 137.382812 161.945312 C 137.902344 161.101562 136.59375 160.136719 134.304688 159.675781 C 129.765625 158.769531 120.117188 150.042969 120.117188 146.84375 C 120.117188 145.675781 119.523438 144.71875 118.800781 144.71875 C 118.078125 144.71875 117.058594 141.886719 116.542969 138.425781 C 116.023438 134.964844 115.039062 132.480469 114.351562 132.902344 C 113.667969 133.324219 113.109375 131.703125 113.109375 129.300781 C 113.109375 126.746094 112.527344 125.292969 111.707031 125.796875 C 110.886719 126.304688 110.265625 124.742188 110.210938 122.027344 C 109.90625 107.527344 108.835938 86.03125 108.25 82.703125 C 107.878906 80.582031 108.1875 78.847656 108.941406 78.847656 C 109.691406 78.847656 110.304688 76.921875 110.304688 74.5625 C 110.304688 72.0625 110.890625 70.636719 111.707031 71.140625 C 112.476562 71.617188 113.109375 71.023438 113.109375 69.824219 C 113.109375 68.621094 114.054688 67.636719 115.210938 67.636719 C 116.367188 67.636719 117.3125 66.625 117.3125 65.382812 C 117.3125 63.679688 118.167969 63.34375 120.816406 64.007812 C 123.402344 64.65625 124.320312 64.332031 124.320312 62.757812 C 124.320312 60.335938 129.945312 59.859375 133.800781 61.957031 C 135.136719 62.683594 138.597656 63.660156 141.488281 64.121094 C 144.378906 64.582031 146.742188 65.515625 146.742188 66.191406 C 146.742188 67.726562 154.964844 76.046875 156.480469 76.046875 C 157.09375 76.046875 157.992188 78.515625 158.472656 81.535156 C 158.957031 84.554688 159.824219 87.234375 160.40625 87.492188 C 160.984375 87.746094 162.71875 90.441406 164.261719 93.476562 C 166.699219 98.277344 167.046875 101.609375 166.9375 119.179688 C 166.863281 130.984375 166.226562 139.75 165.40625 140.292969 C 164.632812 140.796875 163.609375 143.230469 163.128906 145.695312 C 162.144531 150.753906 158.269531 155.929688 155.457031 155.929688 C 154.429688 155.929688 153.910156 156.457031 154.3125 157.101562 C 154.710938 157.75 152.066406 158.964844 148.4375 159.808594 C 144.808594 160.648438 140.632812 161.804688 139.15625 162.375 C 137.421875 163.046875 136.792969 162.890625 137.382812 161.945312 Z M 215.410156 150.324219 C 215.410156 149.550781 214.308594 148.910156 212.960938 148.898438 C 209.59375 148.863281 204.199219 142.882812 204.199219 139.183594 C 204.199219 137.511719 203.570312 136.535156 202.800781 137.007812 C 201.886719 137.570312 201.398438 130.5625 201.398438 117.003906 C 201.398438 105.527344 200.960938 95.699219 200.429688 95.167969 C 199.898438 94.636719 199.632812 90.902344 199.84375 86.875 C 200.238281 79.28125 204.40625 70.441406 207.59375 70.441406 C 208.5625 70.441406 210.113281 68.78125 211.035156 66.757812 C 211.957031 64.730469 213.074219 63.433594 213.515625 63.875 C 213.957031 64.316406 216.441406 63.539062 219.035156 62.148438 C 224.128906 59.417969 236 59.085938 237.605469 61.632812 C 238.117188 62.441406 241.660156 63.410156 245.484375 63.789062 C 249.304688 64.164062 252.691406 65.253906 253.011719 66.214844 C 253.328125 67.171875 254.777344 68.972656 256.222656 70.210938 C 257.671875 71.449219 258.855469 73.21875 258.855469 74.140625 C 258.855469 75.058594 259.628906 76.070312 260.574219 76.386719 C 262.945312 77.175781 263.082031 114.941406 260.71875 116.402344 C 259.816406 116.960938 258.644531 119.144531 258.117188 121.257812 C 257.585938 123.371094 256.640625 125.097656 256.011719 125.097656 C 255.386719 125.097656 254.460938 126.988281 253.953125 129.300781 C 253.445312 131.613281 252.449219 133.503906 251.738281 133.503906 C 251.027344 133.503906 250.449219 134.480469 250.449219 135.675781 C 250.449219 138.316406 243.796875 144.71875 241.050781 144.71875 C 239.960938 144.71875 239.417969 145.277344 239.84375 145.964844 C 240.265625 146.652344 238.414062 147.625 235.722656 148.128906 C 233.03125 148.636719 230.828125 149.652344 230.828125 150.386719 C 230.828125 151.121094 227.359375 151.722656 223.121094 151.722656 C 218.882812 151.722656 215.414062 151.09375 215.414062 150.324219 Z M 228.40625 56.980469 C 228.871094 56.515625 230.078125 56.464844 231.089844 56.871094 C 232.207031 57.316406 231.875 57.648438 230.242188 57.71875 C 228.765625 57.777344 227.9375 57.445312 228.40625 56.980469 Z M 228.40625 56.980469 "
            fill-opacity="1" fill-rule="nonzero" />
    </g>
    <g fill="#d9d9d9" fill-opacity="1">
        <g transform="translate(117.778985, 283.606526)">
            <g />
        </g>
    </g>
    <g fill="#d9d9d9" fill-opacity="1">
        <g transform="translate(125.772674, 285.805318)">
            <g>
                <path
                    d="M 9.28125 2.40625 C 7.695312 2.070312 6.367188 1.429688 5.296875 0.484375 C 4.222656 -0.460938 3.488281 -1.644531 3.09375 -3.0625 C 2.707031 -4.488281 2.6875 -6.023438 3.03125 -7.671875 C 3.382812 -9.378906 4.101562 -10.898438 5.1875 -12.234375 C 6.28125 -13.566406 7.566406 -14.539062 9.046875 -15.15625 C 10.523438 -15.78125 12 -15.941406 13.46875 -15.640625 C 15.320312 -15.253906 16.632812 -14.488281 17.40625 -13.34375 C 18.175781 -12.207031 18.375 -10.734375 18 -8.921875 C 17.84375 -8.191406 17.632812 -7.585938 17.375 -7.109375 L 16.796875 -6.765625 L 6.265625 -8.953125 C 5.734375 -6.492188 5.828125 -4.488281 6.546875 -2.9375 C 7.273438 -1.394531 8.535156 -0.4375 10.328125 -0.0625 C 11.765625 0.226562 13.398438 0.15625 15.234375 -0.28125 L 15.453125 -0.171875 L 15.640625 1.03125 C 14.585938 1.5 13.453125 1.882812 12.234375 2.1875 C 11.023438 2.488281 10.039062 2.5625 9.28125 2.40625 Z M 13.6875 -9.234375 C 14.070312 -9.203125 14.335938 -9.238281 14.484375 -9.34375 C 14.640625 -9.445312 14.757812 -9.6875 14.84375 -10.0625 C 15.050781 -11.082031 14.9375 -11.910156 14.5 -12.546875 C 14.070312 -13.191406 13.351562 -13.617188 12.34375 -13.828125 C 11.144531 -14.078125 10.035156 -13.882812 9.015625 -13.25 C 8.003906 -12.625 7.238281 -11.65625 6.71875 -10.34375 Z M 13.6875 -9.234375 " />
            </g>
        </g>
    </g>
    <g fill="#d9d9d9" fill-opacity="1">
        <g transform="translate(143.601115, 289.454421)">
            <g>
                <path
                    d="M 6.53125 1.390625 C 5.707031 1.273438 4.960938 1.109375 4.296875 0.890625 C 3.628906 0.679688 3.109375 0.484375 2.734375 0.296875 C 2.367188 0.117188 2.140625 0 2.046875 -0.0625 L 1.984375 -0.359375 C 2.109375 -0.722656 2.304688 -1.5 2.578125 -2.6875 C 2.847656 -3.882812 3.046875 -4.804688 3.171875 -5.453125 L 4.53125 -5.453125 C 4.300781 -3.765625 4.421875 -2.53125 4.890625 -1.75 C 5.359375 -0.976562 6.269531 -0.492188 7.625 -0.296875 C 8.59375 -0.160156 9.441406 -0.265625 10.171875 -0.609375 C 10.910156 -0.960938 11.320312 -1.460938 11.40625 -2.109375 C 11.5 -2.742188 11.28125 -3.363281 10.75 -3.96875 C 10.21875 -4.582031 9.132812 -5.488281 7.5 -6.6875 C 6.132812 -7.644531 5.171875 -8.550781 4.609375 -9.40625 C 4.046875 -10.269531 3.832031 -11.164062 3.96875 -12.09375 C 4.113281 -13.113281 4.550781 -14 5.28125 -14.75 C 6.007812 -15.5 6.945312 -16.035156 8.09375 -16.359375 C 9.238281 -16.691406 10.484375 -16.765625 11.828125 -16.578125 C 12.441406 -16.484375 13.023438 -16.351562 13.578125 -16.1875 C 14.128906 -16.019531 14.578125 -15.859375 14.921875 -15.703125 C 15.273438 -15.554688 15.5 -15.460938 15.59375 -15.421875 L 15.65625 -15.203125 C 15.5625 -14.960938 15.359375 -14.394531 15.046875 -13.5 C 14.742188 -12.613281 14.472656 -11.648438 14.234375 -10.609375 L 12.8125 -10.703125 C 12.8125 -10.773438 12.84375 -10.925781 12.90625 -11.15625 C 12.96875 -11.382812 13.007812 -11.601562 13.03125 -11.8125 C 13.164062 -12.738281 13.007812 -13.445312 12.5625 -13.9375 C 12.125 -14.4375 11.351562 -14.757812 10.25 -14.90625 C 9.375 -15.03125 8.601562 -14.925781 7.9375 -14.59375 C 7.28125 -14.269531 6.910156 -13.8125 6.828125 -13.21875 C 6.742188 -12.601562 6.925781 -11.988281 7.375 -11.375 C 7.832031 -10.769531 8.609375 -10.078125 9.703125 -9.296875 C 11.640625 -7.898438 12.929688 -6.769531 13.578125 -5.90625 C 14.222656 -5.039062 14.476562 -4.117188 14.34375 -3.140625 C 14.207031 -2.171875 13.757812 -1.300781 13 -0.53125 C 12.238281 0.226562 11.273438 0.78125 10.109375 1.125 C 8.953125 1.46875 7.757812 1.554688 6.53125 1.390625 Z M 6.53125 1.390625 " />
            </g>
        </g>
    </g>
    <g fill="#d9d9d9" fill-opacity="1">
        <g transform="translate(159.752751, 291.651179)">
            <g>
                <path
                    d="M 7.953125 1.125 C 6.203125 0.976562 4.988281 0.519531 4.3125 -0.25 C 3.644531 -1.019531 3.378906 -2.253906 3.515625 -3.953125 L 4.296875 -13.5 C 4.359375 -14.195312 4.242188 -14.703125 3.953125 -15.015625 C 3.671875 -15.328125 3.101562 -15.53125 2.25 -15.625 L 2.109375 -15.875 L 2.421875 -17.015625 C 3.191406 -17.316406 3.953125 -17.703125 4.703125 -18.171875 C 5.460938 -18.648438 6.082031 -19.070312 6.5625 -19.4375 C 7.050781 -19.800781 7.367188 -20.039062 7.515625 -20.15625 L 8.265625 -19.78125 C 8.222656 -19.65625 8.15625 -19.347656 8.0625 -18.859375 C 7.976562 -18.367188 7.859375 -17.710938 7.703125 -16.890625 L 13.40625 -16.53125 L 13.515625 -16.421875 L 12.984375 -14.390625 L 7.390625 -14.984375 C 6.984375 -12.148438 6.628906 -8.921875 6.328125 -5.296875 C 6.222656 -3.972656 6.367188 -3.019531 6.765625 -2.4375 C 7.171875 -1.863281 7.929688 -1.53125 9.046875 -1.4375 C 9.441406 -1.40625 9.835938 -1.421875 10.234375 -1.484375 C 10.628906 -1.554688 10.960938 -1.640625 11.234375 -1.734375 C 11.503906 -1.835938 11.679688 -1.898438 11.765625 -1.921875 L 12.046875 -0.90625 C 11.878906 -0.78125 11.53125 -0.554688 11 -0.234375 C 10.46875 0.0859375 9.894531 0.398438 9.28125 0.703125 C 8.675781 1.003906 8.234375 1.144531 7.953125 1.125 Z M 7.953125 1.125 " />
            </g>
        </g>
    </g>
    <g fill="#d9d9d9" fill-opacity="1">
        <g transform="translate(173.121616, 292.719933)">
            <g>
                <path
                    d="M 5.78125 0.65625 C 5.082031 0.632812 4.550781 0.40625 4.1875 -0.03125 C 3.832031 -0.476562 3.664062 -1.015625 3.6875 -1.640625 C 3.707031 -2.316406 3.941406 -2.878906 4.390625 -3.328125 C 4.847656 -3.773438 5.441406 -3.988281 6.171875 -3.96875 C 6.867188 -3.9375 7.40625 -3.703125 7.78125 -3.265625 C 8.15625 -2.828125 8.332031 -2.300781 8.3125 -1.6875 C 8.289062 -1.007812 8.046875 -0.445312 7.578125 0 C 7.109375 0.457031 6.507812 0.675781 5.78125 0.65625 Z M 5.78125 0.65625 " />
            </g>
        </g>
    </g>
    <g fill="#d9d9d9" fill-opacity="1">
        <g transform="translate(185.565654, 293.125089)">
            <g>
                <path
                    d="M 2.109375 -1.359375 C 3.097656 -1.453125 3.832031 -1.632812 4.3125 -1.90625 C 4.800781 -2.175781 5.128906 -2.609375 5.296875 -3.203125 C 5.472656 -3.804688 5.550781 -4.695312 5.53125 -5.875 L 5.375 -14.734375 C 5.351562 -15.640625 5.175781 -16.226562 4.84375 -16.5 C 4.519531 -16.78125 3.984375 -16.914062 3.234375 -16.90625 C 2.890625 -16.90625 2.492188 -16.867188 2.046875 -16.796875 C 1.597656 -16.722656 1.3125 -16.671875 1.1875 -16.640625 L 1.0625 -16.765625 L 1.1875 -18.390625 C 1.445312 -18.421875 1.96875 -18.492188 2.75 -18.609375 C 3.539062 -18.734375 4.441406 -18.882812 5.453125 -19.0625 C 7.515625 -19.425781 8.675781 -19.640625 8.9375 -19.703125 C 9.195312 -19.773438 9.34375 -19.8125 9.375 -19.8125 L 9.609375 -19.171875 C 9.109375 -18.722656 8.757812 -18.28125 8.5625 -17.84375 C 8.375 -17.414062 8.265625 -16.757812 8.234375 -15.875 C 8.148438 -11.75 8.140625 -7.960938 8.203125 -4.515625 C 8.222656 -3.472656 8.363281 -2.773438 8.625 -2.421875 C 8.894531 -2.066406 9.40625 -1.894531 10.15625 -1.90625 C 10.625 -1.914062 11.050781 -1.9375 11.4375 -1.96875 C 11.832031 -2 12.09375 -2.023438 12.21875 -2.046875 L 12.296875 -1.890625 L 11.984375 -0.109375 C 11.617188 -0.117188 10.929688 -0.128906 9.921875 -0.140625 C 8.910156 -0.148438 7.875 -0.144531 6.8125 -0.125 C 5.976562 -0.101562 5.03125 -0.0195312 3.96875 0.125 C 2.90625 0.269531 2.222656 0.375 1.921875 0.4375 Z M 2.109375 -1.359375 " />
            </g>
        </g>
    </g>
    <g fill="#d9d9d9" fill-opacity="1">
        <g transform="translate(199.592984, 292.916705)">
            <g>
                <path
                    d="M 7.5 -20.3125 C 8.84375 -20.414062 10.070312 -20.164062 11.1875 -19.5625 C 12.300781 -18.957031 13.207031 -18.066406 13.90625 -16.890625 C 14.601562 -15.722656 15.015625 -14.351562 15.140625 -12.78125 C 15.410156 -9.34375 14.519531 -6.148438 12.46875 -3.203125 C 10.414062 -0.265625 7.425781 2.070312 3.5 3.8125 L 3.21875 3.640625 L 2.6875 2.5 C 5.269531 1.1875 7.34375 -0.4375 8.90625 -2.375 C 10.476562 -4.3125 11.460938 -6.425781 11.859375 -8.71875 L 11.734375 -8.78125 C 10.816406 -8.09375 9.976562 -7.535156 9.21875 -7.109375 C 8.46875 -6.679688 7.925781 -6.457031 7.59375 -6.4375 C 6.351562 -6.332031 5.203125 -6.515625 4.140625 -6.984375 C 3.078125 -7.453125 2.207031 -8.148438 1.53125 -9.078125 C 0.863281 -10.003906 0.484375 -11.054688 0.390625 -12.234375 C 0.273438 -13.640625 0.503906 -14.9375 1.078125 -16.125 C 1.660156 -17.3125 2.515625 -18.273438 3.640625 -19.015625 C 4.765625 -19.765625 6.050781 -20.195312 7.5 -20.3125 Z M 8.265625 -8.78125 C 8.878906 -8.832031 9.539062 -9.019531 10.25 -9.34375 C 10.957031 -9.675781 11.5625 -10.070312 12.0625 -10.53125 C 12.101562 -11.132812 12.097656 -11.722656 12.046875 -12.296875 C 11.890625 -14.285156 11.347656 -15.828125 10.421875 -16.921875 C 9.503906 -18.015625 8.320312 -18.503906 6.875 -18.390625 C 5.613281 -18.285156 4.648438 -17.789062 3.984375 -16.90625 C 3.328125 -16.03125 3.054688 -14.863281 3.171875 -13.40625 C 3.242188 -12.507812 3.523438 -11.691406 4.015625 -10.953125 C 4.515625 -10.222656 5.132812 -9.660156 5.875 -9.265625 C 6.613281 -8.867188 7.410156 -8.707031 8.265625 -8.78125 Z M 8.265625 -8.78125 " />
            </g>
        </g>
    </g>
    <g fill="#d9d9d9" fill-opacity="1">
        <g transform="translate(218.06464, 291.406141)">
            <g>
                <path
                    d="M 7.828125 -14.734375 C 9.054688 -14.921875 10.21875 -14.8125 11.3125 -14.40625 C 12.414062 -14.007812 13.332031 -13.378906 14.0625 -12.515625 C 14.800781 -11.648438 15.257812 -10.625 15.4375 -9.4375 C 15.65625 -8.050781 15.515625 -6.742188 15.015625 -5.515625 C 14.523438 -4.296875 13.742188 -3.273438 12.671875 -2.453125 C 11.609375 -1.628906 10.359375 -1.109375 8.921875 -0.890625 C 7.585938 -0.679688 6.34375 -0.835938 5.1875 -1.359375 C 4.03125 -1.878906 3.066406 -2.703125 2.296875 -3.828125 C 1.523438 -4.960938 1.019531 -6.3125 0.78125 -7.875 C 0.257812 -11.289062 0.914062 -14.53125 2.75 -17.59375 C 4.59375 -20.664062 7.398438 -23.21875 11.171875 -25.25 L 11.484375 -25.09375 L 12.078125 -24 C 9.597656 -22.5 7.648438 -20.726562 6.234375 -18.6875 C 4.816406 -16.644531 3.984375 -14.460938 3.734375 -12.140625 L 3.859375 -12.09375 C 4.742188 -12.851562 5.539062 -13.46875 6.25 -13.9375 C 6.96875 -14.414062 7.492188 -14.679688 7.828125 -14.734375 Z M 9.40625 -2.859375 C 10.65625 -3.054688 11.578125 -3.617188 12.171875 -4.546875 C 12.765625 -5.472656 12.953125 -6.65625 12.734375 -8.09375 C 12.597656 -9 12.257812 -9.796875 11.71875 -10.484375 C 11.1875 -11.171875 10.53125 -11.679688 9.75 -12.015625 C 8.976562 -12.359375 8.171875 -12.46875 7.328125 -12.34375 C 6.710938 -12.25 6.066406 -12.007812 5.390625 -11.625 C 4.710938 -11.238281 4.132812 -10.804688 3.65625 -10.328125 C 3.664062 -9.753906 3.71875 -9.164062 3.8125 -8.5625 C 4.113281 -6.59375 4.757812 -5.09375 5.75 -4.0625 C 6.738281 -3.039062 7.957031 -2.640625 9.40625 -2.859375 Z M 9.40625 -2.859375 " />
            </g>
        </g>
    </g>
    <g fill="#d9d9d9" fill-opacity="1">
        <g transform="translate(236.730346, 288.572515)">
            <g>
                <path
                    d="M 9.703125 -1.78125 C 8.085938 -1.40625 6.570312 -1.46875 5.15625 -1.96875 C 3.75 -2.46875 2.539062 -3.34375 1.53125 -4.59375 C 0.519531 -5.84375 -0.195312 -7.394531 -0.625 -9.25 C -1.082031 -11.195312 -1.097656 -13.035156 -0.671875 -14.765625 C -0.242188 -16.503906 0.566406 -17.976562 1.765625 -19.1875 C 2.960938 -20.394531 4.4375 -21.203125 6.1875 -21.609375 C 7.75 -21.972656 9.238281 -21.914062 10.65625 -21.4375 C 12.070312 -20.957031 13.285156 -20.101562 14.296875 -18.875 C 15.304688 -17.644531 16.019531 -16.132812 16.4375 -14.34375 C 16.894531 -12.375 16.910156 -10.5 16.484375 -8.71875 C 16.066406 -6.9375 15.265625 -5.4375 14.078125 -4.21875 C 12.898438 -3 11.441406 -2.1875 9.703125 -1.78125 Z M 9.703125 -4.8125 C 11.597656 -5.257812 12.988281 -6.21875 13.875 -7.6875 C 14.769531 -9.164062 14.992188 -10.863281 14.546875 -12.78125 C 14.222656 -14.164062 13.644531 -15.332031 12.8125 -16.28125 C 11.976562 -17.238281 10.976562 -17.898438 9.8125 -18.265625 C 8.65625 -18.640625 7.414062 -18.671875 6.09375 -18.359375 C 4.207031 -17.921875 2.828125 -16.96875 1.953125 -15.5 C 1.085938 -14.03125 0.882812 -12.300781 1.34375 -10.3125 C 1.664062 -8.9375 2.234375 -7.78125 3.046875 -6.84375 C 3.867188 -5.90625 4.851562 -5.253906 6 -4.890625 C 7.15625 -4.535156 8.390625 -4.507812 9.703125 -4.8125 Z M 9.703125 -4.8125 " />
            </g>
        </g>
    </g>
</svg>